<?xml version="1.0" encoding="UTF-8" standalone="no"?>
<svg width="114px" height="114px" viewBox="0 0 114 114" version="1.1" xmlns="http://www.w3.org/2000/svg" xmlns:xlink="http://www.w3.org/1999/xlink" xmlns:sketch="http://www.bohemiancoding.com/sketch/ns">
    <!-- Generator: Sketch 3.5.1 (25234) - http://www.bohemiancoding.com/sketch -->
    <title>Group 23</title>
    <desc>Created with Sketch.</desc>
    <defs></defs>
    <g id="Page-1" stroke="none" stroke-width="1" fill="none" fill-rule="evenodd" sketch:type="MSPage">
        <g id="Home-ver-1" sketch:type="MSArtboardGroup" transform="translate(-1107.000000, -939.000000)">
            <g id="Group-9" sketch:type="MSLayerGroup" transform="translate(1003.000000, 941.000000)">
                <g id="Group-23" transform="translate(106.000000, 0.000000)" sketch:type="MSShapeGroup">
                    <circle id="Oval-2" stroke="#F2F2F2" stroke-width="4" cx="55" cy="55" r="55"></circle>
                    <circle id="Oval-2" stroke="#F2F2F2" stroke-width="4" cx="55" cy="55" r="42.7777778"></circle>
                    <path d="M92.8888889,53.7777778 L90.2244444,53.7777778 C89.056,46.8453333 83.0353333,41.5555556 75.7777778,41.5555556 C72.9031111,41.5555556 70.2288889,42.3964444 67.9653333,43.8288889 L67.6328889,43.4964444 C64.4795556,40.6682222 60.4291111,39.1111111 56.2222222,39.1111111 C52.0153333,39.1111111 47.9648889,40.6682222 44.7162222,43.5868889 L44.4766667,43.8264444 C42.2131111,42.3964444 39.5413333,41.5555556 36.6666667,41.5555556 C29.4066667,41.5555556 23.386,46.8453333 22.22,53.7777778 L19.5555556,53.7777778 L19.5555556,58.6666667 L22.22,58.6666667 C23.386,65.5991111 29.4066667,70.8888889 36.6666667,70.8888889 C44.7602222,70.8888889 51.3333333,64.3206667 51.3333333,56.2222222 C51.3333333,52.7682222 50.1306667,49.6002222 48.1311111,47.0946667 C50.3775556,45.1024444 53.2473333,44 56.2222222,44 C59.2215556,44 62.1133333,45.1122222 64.2717778,47.0433333 L64.3182222,47.0897778 C62.3137778,49.5953333 61.1111111,52.7657778 61.1111111,56.2222222 C61.1111111,64.3206667 67.6866667,70.8888889 75.7777778,70.8888889 C83.0377778,70.8888889 89.0584444,65.5991111 90.2244444,58.6666667 L92.8888889,58.6666667 L92.8888889,53.7777778 L92.8888889,53.7777778 Z M36.6666667,66 C31.2766667,66 26.8888889,61.6122222 26.8888889,56.2222222 C26.8888889,50.8322222 31.2766667,46.4444444 36.6666667,46.4444444 C42.0566667,46.4444444 46.4444444,50.8322222 46.4444444,56.2222222 C46.4444444,61.6122222 42.0566667,66 36.6666667,66 L36.6666667,66 Z M75.7777778,66 C70.3877778,66 66,61.6122222 66,56.2222222 C66,50.8322222 70.3877778,46.4444444 75.7777778,46.4444444 C81.1677778,46.4444444 85.5555556,50.8322222 85.5555556,56.2222222 C85.5555556,61.6122222 81.1677778,66 75.7777778,66 L75.7777778,66 Z" id="Shape" fill="#F2F2F2"></path>
                </g>
            </g>
        </g>
    </g>
</svg>