<?xml version="1.0" encoding="UTF-8" standalone="no"?>
<svg width="154px" height="153px" viewBox="0 0 154 153" version="1.1" xmlns="http://www.w3.org/2000/svg" xmlns:xlink="http://www.w3.org/1999/xlink" xmlns:sketch="http://www.bohemiancoding.com/sketch/ns">
    <!-- Generator: Sketch 3.5.1 (25234) - http://www.bohemiancoding.com/sketch -->
    <title>Group 13</title>
    <desc>Created with Sketch.</desc>
    <defs></defs>
    <g id="Page-1" stroke="none" stroke-width="1" fill="none" fill-rule="evenodd" sketch:type="MSPage">
        <g id="Home-ver-1" sketch:type="MSArtboardGroup" transform="translate(-273.000000, -547.000000)" stroke="#FFFFFF" stroke-width="4">
            <g id="Group-13" sketch:type="MSLayerGroup" transform="translate(275.000000, 549.000000)">
                <ellipse id="Oval-2" sketch:type="MSShapeGroup" cx="74.6268657" cy="74.1293532" rx="74.6268657" ry="74.1293532"></ellipse>
                <ellipse id="Oval-105" sketch:type="MSShapeGroup" cx="74.6268657" cy="74.1293532" rx="14.9253731" ry="14.8258706"></ellipse>
                <path d="M1.65837479,74.8706468 L14.9253731,74.8706468" id="Line" stroke-linecap="square" sketch:type="MSShapeGroup"></path>
                <path d="M47.761194,74.8706468 L57.7114428,74.8706468" id="Line" stroke-linecap="square" sketch:type="MSShapeGroup"></path>
                <path d="M134.494196,74.8706468 L147.761194,74.8706468" id="Line" stroke-linecap="square" sketch:type="MSShapeGroup"></path>
                <path d="M91.0447761,74.8706468 L100.995025,74.8706468" id="Line" stroke-linecap="square" sketch:type="MSShapeGroup"></path>
                <path d="M116.864154,59.3288446 C110.724557,42.0406063 94.1322086,29.6517413 74.6268657,29.6517413 C55.1215228,29.6517413 38.5291743,42.0406063 32.389577,59.3288446 C40.2227991,59.7814947 46.4344942,66.2348505 46.4344942,74.1293532 C46.4344942,82.023856 40.2227991,88.4772118 32.3895748,88.9298556 C38.5291743,106.2181 55.1215228,118.606965 74.6268657,118.606965 C94.1322086,118.606965 110.724557,106.2181 116.864154,88.9298618 C109.030932,88.4772118 102.819237,82.023856 102.819237,74.1293532 C102.819237,66.2348505 109.030932,59.7814947 116.864157,59.3288508 Z" id="Oval-109" sketch:type="MSShapeGroup"></path>
                <ellipse id="Oval-105" sketch:type="MSShapeGroup" cx="117.74461" cy="74.1293532" rx="14.9253731" ry="14.8258706"></ellipse>
                <ellipse id="Oval-105" sketch:type="MSShapeGroup" cx="31.5091211" cy="74.1293532" rx="14.9253731" ry="14.8258706"></ellipse>
            </g>
        </g>
    </g>
</svg>