<?xml version="1.0" encoding="UTF-8" standalone="no"?>
<svg width="114px" height="115px" viewBox="0 0 114 115" version="1.1" xmlns="http://www.w3.org/2000/svg" xmlns:xlink="http://www.w3.org/1999/xlink" xmlns:sketch="http://www.bohemiancoding.com/sketch/ns">
    <!-- Generator: Sketch 3.5.1 (25234) - http://www.bohemiancoding.com/sketch -->
    <title>Group 21</title>
    <desc>Created with Sketch.</desc>
    <defs></defs>
    <g id="Page-1" stroke="none" stroke-width="1" fill="none" fill-rule="evenodd" sketch:type="MSPage">
        <g id="Home-ver-1" sketch:type="MSArtboardGroup" transform="translate(-516.000000, -938.000000)">
            <g id="Group-7" sketch:type="MSLayerGroup" transform="translate(409.000000, 940.000000)">
                <g id="Group-21" transform="translate(109.000000, 0.000000)" sketch:type="MSShapeGroup">
                    <ellipse id="Oval-2-Copy-5" stroke="#F2F2F2" stroke-width="4" cx="54.9023957" cy="55.4468248" rx="54.9023957" ry="54.9023957"></ellipse>
                    <path d="M46.7591999,32.7373312 C51.6947055,27.8018256 53.7201474,10.0852453 53.7201474,10.0852453 C53.7201474,10.0852453 55.6642902,27.7205266 60.5591463,32.6153826 C65.5267884,37.5830247 83.3076417,39.6727397 83.3076417,39.6727397 C83.3076417,39.6727397 68.7758238,43.6146976 64.2126461,52.2111925 C58.9133256,62.1944948 53.7201474,110.57802 53.7201474,110.57802 C53.7201474,110.57802 48.5377093,62.214728 43.2437589,52.2415424 C38.6752112,43.6349308 24.1326531,39.6727397 24.1326531,39.6727397 C24.1326531,39.6727397 41.8322074,37.6643237 46.7591999,32.7373312 L46.7591999,32.7373312 Z" id="Rectangle-2-Copy-17" stroke="#F2F2F2" stroke-width="4"></path>
                    <path d="M24.6938776,39.8301433 L36.5517995,106.030211 C36.5517995,106.030211 49.1316574,110.406306 55.0215209,110.406306 C62.0409125,110.406306 70.3992908,107.121969 70.3992908,107.121969 L83.1754138,39.897924 L71.4175744,43.4151088 L63.9712252,52.2165432 L58.9342692,65.3914236 L53.8162942,99.0800378 L46.1507166,54.5856917 C46.1507166,54.5856917 45.3481059,48.6937756 38.3204528,45.0720302 C31.2927997,41.4502847 24.6938776,39.8301433 24.6938776,39.8301433 Z M77.723646,44.5402559 L67.9632201,103.102811 C67.8524453,103.76746 67.2238403,104.216464 66.5591915,104.105689 C65.8945427,103.994914 65.4455391,103.366309 65.5563139,102.70166 L75.3167398,44.1391048 C75.4275146,43.474456 76.0561196,43.0254525 76.7207684,43.1362273 C77.3854172,43.2470021 77.8344208,43.8756071 77.723646,44.5402559 Z M28.9547167,44.5402559 L38.7151426,103.102811 C38.8259174,103.76746 39.4545224,104.216464 40.1191712,104.105689 C40.78382,103.994914 41.2328236,103.366309 41.1220488,102.70166 L31.3616229,44.1391048 C31.2508481,43.474456 30.6222431,43.0254525 29.9575943,43.1362273 C29.2929455,43.2470021 28.8439419,43.8756071 28.9547167,44.5402559 Z M70.4085336,49.3862377 L62.8091512,104.603427 C62.7172818,105.270951 62.1016712,105.737612 61.4341466,105.645742 C60.766622,105.553873 60.2999614,104.938262 60.3918309,104.270738 L67.9912133,49.0535489 C68.0830827,48.3860243 68.6986933,47.9193636 69.3662179,48.0112331 C70.0337425,48.1031026 70.5004031,48.7187131 70.4085336,49.3862377 Z M35.9907661,49.3862377 L43.5901485,104.603427 C43.682018,105.270951 44.2976285,105.737612 44.9651531,105.645742 C45.6326777,105.553873 46.0993383,104.938262 46.0074689,104.270738 L38.4080865,49.0535489 C38.316217,48.3860243 37.7006064,47.9193636 37.0330819,48.0112331 C36.3655573,48.1031026 35.8988966,48.7187131 35.9907661,49.3862377 Z" id="Path-175-Copy" fill="#F2F2F2"></path>
                </g>
            </g>
        </g>
    </g>
</svg>