<?xml version="1.0" encoding="UTF-8" standalone="no"?>
<svg width="114px" height="114px" viewBox="0 0 114 114" version="1.1" xmlns="http://www.w3.org/2000/svg" xmlns:xlink="http://www.w3.org/1999/xlink" xmlns:sketch="http://www.bohemiancoding.com/sketch/ns">
    <!-- Generator: Sketch 3.5.1 (25234) - http://www.bohemiancoding.com/sketch -->
    <title>Group 24</title>
    <desc>Created with Sketch.</desc>
    <defs></defs>
    <g id="Page-1" stroke="none" stroke-width="1" fill="none" fill-rule="evenodd" sketch:type="MSPage">
        <g id="Home-ver-1" sketch:type="MSArtboardGroup" transform="translate(-811.000000, -1161.000000)" stroke="#F2F2F2" stroke-width="4">
            <g id="Group-8-Copy" sketch:type="MSLayerGroup" transform="translate(704.000000, 1163.000000)">
                <g id="Group-24" transform="translate(109.000000, 0.000000)" sketch:type="MSShapeGroup">
                    <circle id="Oval-2" cx="55" cy="55" r="55"></circle>
                    <path d="M56.2222222,110 C56.2222222,110 88,71.3281598 88,53.7777778 C88,36.2273957 73.7726043,22 56.2222222,22 C38.6718402,22 24.4444444,36.2273957 24.4444444,53.7777778 C24.4444444,71.3281598 56.2222222,110 56.2222222,110 Z" id="Oval-76" transform="translate(56.222222, 66.000000) scale(1, -1) translate(-56.222222, -66.000000) "></path>
                    <path d="M55.6111111,110 C55.6111111,110 79.4444444,80.9961199 79.4444444,67.8333333 C79.4444444,54.6705468 68.7738976,44 55.6111111,44 C42.4483246,44 31.7777778,54.6705468 31.7777778,67.8333333 C31.7777778,80.9961199 55.6111111,110 55.6111111,110 Z" id="Oval-76" transform="translate(55.611111, 77.000000) scale(1, -1) translate(-55.611111, -77.000000) "></path>
                </g>
            </g>
        </g>
    </g>
</svg>