<?xml version="1.0" encoding="UTF-8" standalone="no"?>
<svg width="114px" height="115px" viewBox="0 0 114 115" version="1.1" xmlns="http://www.w3.org/2000/svg" xmlns:xlink="http://www.w3.org/1999/xlink" xmlns:sketch="http://www.bohemiancoding.com/sketch/ns">
    <!-- Generator: Sketch 3.5.1 (25234) - http://www.bohemiancoding.com/sketch -->
    <title>Group 19</title>
    <desc>Created with Sketch.</desc>
    <defs></defs>
    <g id="Page-1" stroke="none" stroke-width="1" fill="none" fill-rule="evenodd" sketch:type="MSPage">
        <g id="Home-ver-1" sketch:type="MSArtboardGroup" transform="translate(-219.000000, -938.000000)">
            <g id="Group-6" sketch:type="MSLayerGroup" transform="translate(112.000000, 940.000000)">
                <g id="Group-19" transform="translate(109.000000, 0.000000)" sketch:type="MSShapeGroup">
                    <circle id="Oval-2-Copy" stroke="#F2F2F2" stroke-width="4" transform="translate(55.000000, 55.521572) scale(1, -1) translate(-55.000000, -55.521572) " cx="55" cy="55.5215715" r="55"></circle>
                    <path d="M0,55.6437937 L110,55.6437937" id="Line-Copy-16" stroke="#F2F2F2" stroke-linecap="square"></path>
                    <path d="M0,57.966016 L107.555556,57.966016" id="Line-Copy-17" stroke="#F2F2F2" stroke-linecap="square"></path>
                    <path d="M2.2,60.166016 L107.311111,60.166016" id="Line-Copy-18" stroke="#F2F2F2" stroke-linecap="square"></path>
                    <path d="M2.2,60.166016 L107.311111,60.166016" id="Line-Copy-19" stroke="#F2F2F2" stroke-linecap="square"></path>
                    <path d="M2.2,62.916016 L107.311111,62.916016" id="Line-Copy-20" stroke="#F2F2F2" stroke-linecap="square"></path>
                    <path d="M2.2,65.116016 L107.311111,65.116016" id="Line-Copy-21" stroke="#F2F2F2" stroke-linecap="square"></path>
                    <path d="M4.95,75.016016 L105.172222,75.016016" id="Line-Copy-22" stroke="#F2F2F2" stroke-linecap="square"></path>
                    <path d="M4.95,77.766016 L105.172222,77.766016" id="Line-Copy-23" stroke="#F2F2F2" stroke-linecap="square"></path>
                    <path d="M12.1,87.116016 L97.6555556,87.116016" id="Line-Copy-24" stroke="#F2F2F2" stroke-linecap="square"></path>
                    <path d="M19.8,97.016016 L90.6888889,97.016016" id="Line-Copy-25" stroke="#F2F2F2" stroke-linecap="square"></path>
                    <path d="M31.9,104.166016 L78.3444444,104.166016" id="Line-Copy-26" stroke="#F2F2F2" stroke-linecap="square"></path>
                    <path d="M1.10019927,54.4215715 L108.899801,54.4215715 C109.621267,57.9757808 110,61.6544473 110,65.4215715 C110,65.8300342 109.995547,66.2374569 109.986688,66.6437937 L0.0133120378,66.6437937 C0.00445264273,66.2374569 0,65.8300342 0,65.4215715 C0,61.6544473 0.378732853,57.9757808 1.10019927,54.4215715 Z" id="Rectangle-37-Copy" fill="#F2F2F2" transform="translate(55.000000, 60.532683) scale(1, -1) translate(-55.000000, -60.532683) "></path>
                    <path d="M89.5657677,98.116016 C90.5336109,97.3328383 91.4743434,96.517481 92.3863379,95.6715715 L17.6,95.6715715 C18.5119944,96.517481 19.452727,97.3328383 20.4205702,98.116016 L89.5657677,98.116016 Z" id="Oval-2-Copy-2" fill="#F2F2F2"></path>
                    <path d="M80.6373755,105.176476 C81.352002,104.598201 82.0466109,103.996166 82.7200004,103.371572 L27.5,103.371572 C28.1733895,103.996166 28.8679983,104.598201 29.5826248,105.176476 L80.6373755,105.176476 Z" id="Oval-2-Copy-3" fill="#F2F2F2"></path>
                    <path d="M3.3,73.6715715 L107.040791,73.6715715 C106.451227,75.3395996 105.783484,76.9706969 105.041963,78.5604604 L5.29881536,78.5604604 C4.55730774,76.9706987 3.88956368,75.3396006 3.3,73.6715715 Z" id="Rectangle-38-Copy" fill="#F2F2F2"></path>
                    <path d="M99.0923395,88.766016 C99.6919273,87.9677673 100.270301,87.1526735 100.826623,86.3215715 L9.35,86.3215715 C9.90632209,87.1526735 10.4846956,87.9677673 11.0842834,88.766016 L99.0923395,88.766016 Z" id="Oval-2-Copy-4" fill="#F2F2F2"></path>
                </g>
            </g>
        </g>
    </g>
</svg>