<?xml version="1.0" encoding="UTF-8" standalone="no"?>
<svg width="114px" height="115px" viewBox="0 0 114 115" version="1.1" xmlns="http://www.w3.org/2000/svg" xmlns:xlink="http://www.w3.org/1999/xlink" xmlns:sketch="http://www.bohemiancoding.com/sketch/ns">
    <!-- Generator: Sketch 3.5.1 (25234) - http://www.bohemiancoding.com/sketch -->
    <title>Group 16</title>
    <desc>Created with Sketch.</desc>
    <defs></defs>
    <g id="Page-1" stroke="none" stroke-width="1" fill="none" fill-rule="evenodd" sketch:type="MSPage">
        <g id="Home-ver-1" sketch:type="MSArtboardGroup" transform="translate(-514.000000, -1161.000000)">
            <g id="Group-7-Copy" sketch:type="MSLayerGroup" transform="translate(407.000000, 1163.000000)">
                <g id="Group-16" transform="translate(109.000000, 0.000000)" sketch:type="MSShapeGroup">
                    <g id="Group-4" transform="translate(0.000000, 0.244444)" stroke="#F2F2F2" stroke-width="4">
                        <circle id="Oval-2" cx="55" cy="55" r="55"></circle>
                        <path d="M1.65,55 L108.9,55" id="Line" stroke-linecap="square" transform="translate(55.275000, 55.000000) scale(1, -1) translate(-55.275000, -55.000000) "></path>
                    </g>
                    <path d="M33.3848444,57.0277778 L29.3673688,57.0277778 C29.3447707,56.586189 29.3333333,56.1416524 29.3333333,55.6944444 C29.3333333,41.5191359 40.8246914,30.0277778 55,30.0277778 C69.1753086,30.0277778 80.6666667,41.5191359 80.6666667,55.6944444 C80.6666667,56.1416524 80.6552293,56.586189 80.6326312,57.0277778 L76.2818223,57.0277778 C76.3159747,56.5322088 76.3333333,56.0320204 76.3333333,55.5277778 C76.3333333,43.6536557 66.7074555,34.0277778 54.8333333,34.0277778 C42.9592112,34.0277778 33.3333333,43.6536557 33.3333333,55.5277778 C33.3333333,56.0320204 33.350692,56.5322088 33.3848444,57.0277778 Z" id="Oval-21" fill="#F2F2F2"></path>
                    <path d="M15.8888889,38.1333333 L34.1993261,44.9997473" id="Line" stroke="#F2F2F2" stroke-width="3" stroke-linecap="square"></path>
                    <path d="M77,38.1333333 L94.1111111,45.4666667" id="Line" stroke="#F2F2F2" stroke-width="3" stroke-linecap="square" transform="translate(85.555556, 41.800000) scale(-1, 1) translate(-85.555556, -41.800000) "></path>
                    <path d="M27.5611111,22.9166667 L39.7833328,37.5833333" id="Line" stroke="#F2F2F2" stroke-width="3" stroke-linecap="square"></path>
                    <path d="M70.2166666,22.9166667 L82.4388884,37.5833333" id="Line" stroke="#F2F2F2" stroke-width="3" stroke-linecap="square" transform="translate(76.327778, 30.250000) scale(-1, 1) translate(-76.327778, -30.250000) "></path>
                    <path d="M55.312717,0.332530382 C49.8463051,0.282655072 46.2432371,0.933764643 38.5680339,2.56571181 L45.8763021,32.4507161 L64.3061417,32.4507161 L72.0574002,2.87126736 C63.9025872,0.82016602 61.0094272,0.384506924 55.312717,0.332530382 Z" id="Path-154" fill="#F2F2F2"></path>
                    <path d="M97.7606533,54.8166667 C97.7720443,54.4106491 97.7777778,54.0032163 97.7777778,53.5944444 C97.7777778,29.9689301 78.6255143,10.8166667 55,10.8166667 C31.3744857,10.8166667 12.2222222,29.9689301 12.2222222,53.5944444 C12.2222222,54.0032163 12.2279557,54.4106491 12.2393467,54.8166667 L97.7606533,54.8166667 Z" id="Oval-33" stroke="#F2F2F2" stroke-width="3"></path>
                </g>
            </g>
        </g>
    </g>
</svg>