<?xml version="1.0" encoding="UTF-8" standalone="no"?>
<svg width="295px" height="66px" viewBox="0 0 295 66" version="1.1" xmlns="http://www.w3.org/2000/svg" xmlns:xlink="http://www.w3.org/1999/xlink" xmlns:sketch="http://www.bohemiancoding.com/sketch/ns">
    <!-- Generator: Sketch 3.5.1 (25234) - http://www.bohemiancoding.com/sketch -->
    <title>Page 1</title>
    <desc>Created with Sketch.</desc>
    <defs>
        <path id="path-1" d="M0,0.118 L294.076,0.118 L294.076,66 L0,66 L0,0.118 Z"></path>
        <path id="path-3" d="M0,0.118 L294.076,0.118 L294.076,66 L0,66 L0,0.118 Z"></path>
        <path id="path-5" d="M0,0.118 L294.076,0.118 L294.076,66 L0,66 L0,0.118 Z"></path>
    </defs>
    <g id="Page-1" stroke="none" stroke-width="1" fill="none" fill-rule="evenodd" sketch:type="MSPage">
        <g id="Home-ver-1" sketch:type="MSArtboardGroup" transform="translate(-90.000000, -63.000000)">
            <g id="Page-1" sketch:type="MSLayerGroup" transform="translate(90.000000, 63.000000)">
                <path d="M82.6329,45.8002 C88.9359,45.8002 93.8239,41.2642 93.8239,35.0362 C93.8239,28.8062 88.9359,24.3312 82.6329,24.3312 C76.3289,24.3312 71.5059,28.8062 71.5059,35.0362 C71.5059,41.2642 76.3289,45.8002 82.6329,45.8002 L82.6329,45.8002 Z M65.5239,8.1842 L71.6339,7.6402 L71.6339,23.6062 C74.2059,20.7032 78.1299,19.0702 82.6329,19.0702 C87.3919,19.0702 91.7659,20.7642 94.9179,23.6062 C98.1979,26.5692 100.0629,30.6202 100.0629,35.0362 C100.0629,39.5102 98.2619,43.4422 94.9179,46.4662 C91.6379,49.4292 87.3279,51.0622 82.6329,51.0622 C72.6629,51.0622 65.5239,44.2892 65.5239,34.6722 L65.5239,8.1842 Z" id="Fill-1" fill="#6D6E71" sketch:type="MSShapeGroup"></path>
                <path d="M105.4034,8.1842 L111.6424,7.6402 L111.6424,50.3362 L105.4034,50.8802 L105.4034,8.1842 Z" id="Fill-3" fill="#6D6E71" sketch:type="MSShapeGroup"></path>
                <path d="M144.3168,50.3364 L138.2058,50.8804 L138.2058,46.4054 C136.1488,49.3684 132.8678,51.0624 129.2658,51.0624 C121.8698,51.0624 118.3958,46.7684 118.3958,37.9394 L118.3958,19.7964 L124.5068,19.2514 L124.5068,38.3624 C124.5068,43.6234 125.9858,46.1634 130.6168,46.1634 C135.8908,46.1634 138.2058,43.0184 138.2058,36.5474 L138.2058,19.7964 L144.3168,19.2514 L144.3168,50.3364 Z" id="Fill-5" fill="#6D6E71" sketch:type="MSShapeGroup"></path>
                <path d="M171.7816,26.2664 C170.1096,24.8754 168.1806,24.2104 165.9286,24.2104 C159.8826,24.2104 155.3166,28.5044 155.3166,35.2174 L155.3166,35.7614 L171.7816,26.2664 Z M166.4436,51.0624 C161.6186,51.0624 157.4386,49.4894 154.1576,46.4664 C150.8136,43.4424 149.0126,39.4504 149.0126,35.0364 C149.0126,30.6814 150.8136,26.5694 154.0296,23.6054 C157.2456,20.5824 161.2336,19.0704 165.9286,19.0704 C172.2966,19.0704 177.5056,21.9124 180.6576,27.1734 L157.0526,40.9024 C158.7246,43.7444 162.3266,45.6184 166.3796,45.6184 C169.9816,45.6184 174.0336,43.9264 178.5996,40.5394 L179.8856,46.2844 C175.4476,49.4294 170.8806,51.0624 166.4436,51.0624 L166.4436,51.0624 Z" id="Fill-7" fill="#6D6E71" sketch:type="MSShapeGroup"></path>
                <path d="M201.5439,45.8002 C207.8469,45.8002 212.7349,41.2642 212.7349,35.0362 C212.7349,28.8062 207.8469,24.3312 201.5439,24.3312 C195.2399,24.3312 190.4169,28.8062 190.4169,35.0362 C190.4169,41.2642 195.2399,45.8002 201.5439,45.8002 L201.5439,45.8002 Z M184.4349,8.1842 L190.5449,7.6402 L190.5449,23.6062 C193.1179,20.7032 197.0409,19.0702 201.5439,19.0702 C206.3029,19.0702 210.6769,20.7642 213.8289,23.6062 C217.1089,26.5692 218.9739,30.6202 218.9739,35.0362 C218.9739,39.5102 217.1729,43.4422 213.8289,46.4662 C210.5489,49.4292 206.2389,51.0622 201.5439,51.0622 C191.5749,51.0622 184.4349,44.2892 184.4349,34.6722 L184.4349,8.1842 Z" id="Fill-9" fill="#107DC2" sketch:type="MSShapeGroup"></path>
                <path d="M239.4938,45.8002 C245.7968,45.8002 250.6848,41.2642 250.6848,35.0362 C250.6848,28.8062 245.7968,24.3312 239.4938,24.3312 C233.1898,24.3312 228.3668,28.8062 228.3668,35.0362 C228.3668,41.2642 233.1898,45.8002 239.4938,45.8002 M227.2088,23.6662 C230.4888,20.7032 234.7338,19.0702 239.4938,19.0702 C244.1888,19.0702 248.6268,20.7642 251.7788,23.6062 C255.0588,26.5692 256.9238,30.6202 256.9238,35.0362 C256.9238,39.5102 255.1228,43.4422 251.7788,46.4662 C248.4988,49.4292 244.1888,51.0622 239.4938,51.0622 C234.6698,51.0622 230.4888,49.4902 227.2088,46.4662 C223.8638,43.4422 222.0638,39.4512 222.0638,35.0362 C222.0638,30.6202 223.8638,26.6892 227.2088,23.6662" id="Fill-11" fill="#107DC2" sketch:type="MSShapeGroup"></path>
                <path d="M268.7603,34.0074 L258.4693,20.2794 L263.6793,19.0704 L272.4913,29.6534 L280.6593,19.0704 L285.9343,20.2794 L275.9643,33.9464 L287.8633,48.7034 L282.2673,51.2434 L272.4913,38.6044 L263.1003,51.2434 L257.4403,49.0054 L268.7603,34.0074 Z" id="Fill-13" fill="#107DC2" sketch:type="MSShapeGroup"></path>
                <g id="Group-17">
                    <mask id="mask-2" sketch:name="Clip 16" fill="white">
                        <use xlink:href="#path-1"></use>
                    </mask>
                    <g id="Clip-16"></g>
                    <path d="M57.646,31.6139 L40.037,50.9469 C38.799,49.6339 37.795,48.1299 38.411,45.2919 C41.014,42.4469 45.128,37.8579 47.731,35.0139 C48.376,33.9259 48.194,33.2419 47.176,32.9659 C42.004,31.9799 36.834,30.9929 31.662,30.0069 C29.95,29.3859 28.853,30.6689 28.002,31.6159 C25.053,35.0159 22.102,38.4159 19.152,41.8169 C17.321,43.4659 17.528,44.3929 19.765,44.5969 C23.067,45.0599 29.929,46.0679 33.232,46.5309 C36.337,47.2189 37.188,49.4899 37.714,51.9879 L9.431,47.6589 C6.691,40.0339 2.74,29.5569 0,21.9329 C2.408,21.6109 4.579,22.1749 6.225,24.6869 C7.451,28.0389 9.885,34.2419 11.111,37.5939 C11.773,39.4349 12.893,39.2739 14.468,37.1119 C17.565,33.9059 20.661,30.7009 23.756,27.4949 C24.746,25.8959 24.736,24.1359 23.728,22.2179 C22.191,18.2329 20.655,14.2469 19.119,10.2629 C18.352,9.1999 17.188,9.3219 15.623,10.6329 C13.787,12.7259 10.751,15.9209 8.915,18.0149 C6.29,20.0099 3.511,20.1029 0.663,19.3329 C6.189,13.2939 12.917,6.1549 18.443,0.1179 C26.915,1.5679 37.867,3.5319 46.341,4.9809 C45.109,6.6489 43.712,8.1869 41.159,8.7839 C37.365,8.1509 31.091,7.0039 27.297,6.3699 C25.511,6.0669 24.911,6.7239 25.494,8.3409 C27.017,12.6939 28.539,17.0489 30.062,21.4019 C30.923,23.3089 32.381,24.2209 34.11,24.6779 C38.376,25.2359 42.644,25.7949 46.91,26.3549 C49.418,26.7829 50.213,25.8259 49.294,23.4859 C48.167,20.8229 46.088,15.5639 44.962,12.9009 C44.061,10.6579 45.544,8.5669 48.111,6.5409 L57.646,31.6139 Z" id="Fill-15" fill="#107DC2" sketch:type="MSShapeGroup" mask="url(#mask-2)"></path>
                </g>
                <g id="Group-20">
                    <mask id="mask-4" sketch:name="Clip 19" fill="white">
                        <use xlink:href="#path-3"></use>
                    </mask>
                    <g id="Clip-19"></g>
                    <path d="M289.4663,15.2155 L289.8963,15.2155 C290.3983,15.2155 290.8033,15.0585 290.8033,14.6765 C290.8033,14.3395 290.5403,14.1145 289.9683,14.1145 C289.7293,14.1145 289.5623,14.1375 289.4663,14.1605 L289.4663,15.2155 Z M289.4423,17.2825 L288.5343,17.2825 L288.5343,13.5985 C288.8933,13.5535 289.3943,13.4865 290.0393,13.4865 C290.7803,13.4865 291.1143,13.5985 291.3763,13.7775 C291.6163,13.9355 291.7833,14.2045 291.7833,14.5645 C291.7833,15.0135 291.4253,15.3045 290.9703,15.4405 L290.9703,15.4855 C291.3533,15.5975 291.5443,15.8895 291.6633,16.3835 C291.7833,16.9445 291.8793,17.1475 291.9503,17.2825 L290.9953,17.2825 C290.8753,17.1475 290.8033,16.8325 290.6843,16.3835 C290.6123,16.0015 290.3743,15.8225 289.8723,15.8225 L289.4423,15.8225 L289.4423,17.2825 Z M287.0293,15.3725 C287.0293,17.0125 288.3433,18.3155 290.0873,18.3155 C291.7833,18.3375 293.0733,17.0125 293.0733,15.3955 C293.0733,13.7555 291.7833,12.4305 290.0393,12.4305 C288.3433,12.4305 287.0293,13.7555 287.0293,15.3725 L287.0293,15.3725 Z M294.0763,15.3725 C294.0763,17.4395 292.3093,19.0785 290.0633,19.0785 C287.8183,19.0785 286.0263,17.4395 286.0263,15.3725 C286.0263,13.3065 287.8183,11.6895 290.0873,11.6895 C292.3093,11.6895 294.0763,13.3065 294.0763,15.3725 L294.0763,15.3725 Z" id="Fill-18" fill="#107DC2" sketch:type="MSShapeGroup" mask="url(#mask-4)"></path>
                </g>
                <path d="M188.5344,62.2543 C188.3394,61.7393 188.1974,61.3493 188.1884,61.3403 L188.1624,61.3403 C188.1534,61.3493 188.0114,61.7313 187.8164,62.2453 L187.3724,63.4883 L188.9784,63.4883 L188.5344,62.2543 Z M186.8834,64.8463 L186.5114,65.8763 L184.9404,65.8763 L187.3364,59.6633 L189.0314,59.6633 L191.4364,65.8763 L189.8394,65.8763 L189.4674,64.8463 L186.8834,64.8463 Z" id="Fill-21" fill="#6D6E71" sketch:type="MSShapeGroup"></path>
                <path d="M195.4948,62.1662 L195.4688,62.1662 C195.4688,62.1752 195.4858,62.9372 195.4858,63.7452 L195.4858,65.8762 L193.9958,65.8762 L193.9958,59.6632 L195.5038,59.6632 L198.1488,63.3022 L198.1748,63.3022 C198.1748,63.2932 198.1668,62.4932 198.1668,61.8202 L198.1668,59.6632 L199.6568,59.6632 L199.6568,65.8762 L198.1398,65.8762 L195.4948,62.1662 Z" id="Fill-23" fill="#6D6E71" sketch:type="MSShapeGroup"></path>
                <mask id="mask-6" sketch:name="Clip 26" fill="white">
                    <use xlink:href="#path-5"></use>
                </mask>
                <g id="Clip-26"></g>
                <path d="M206.766,59.664 L208.257,59.664 L208.257,65.877 L206.766,65.877 L206.766,59.664 Z" id="Fill-25" fill="#6D6E71" sketch:type="MSShapeGroup" mask="url(#mask-6)"></path>
                <path d="M213.738,64.6418 C214.254,64.6418 214.528,64.3488 214.528,63.9328 C214.528,63.4888 214.227,63.2218 213.738,63.2218 L212.691,63.2218 L212.691,64.6418 L213.738,64.6418 Z M213.597,62.1218 C214.005,62.1218 214.271,61.8738 214.271,61.5088 C214.271,61.1628 214.013,60.8958 213.588,60.8958 L212.691,60.8958 L212.691,62.1218 L213.597,62.1218 Z M214.972,62.5658 C215.576,62.7428 216.099,63.2398 216.099,64.0648 C216.099,65.0238 215.416,65.8758 213.872,65.8758 L211.2,65.8758 L211.2,59.6638 L213.881,59.6638 C214.999,59.6638 215.771,60.4178 215.771,61.2778 C215.771,61.9698 215.309,62.4058 214.972,62.5298 L214.972,62.5658 Z" id="Fill-27" fill="#6D6E71" sketch:type="MSShapeGroup" mask="url(#mask-6)"></path>
                <path d="M223.5237,64.3578 C223.5237,62.8848 223.5407,62.1578 223.5407,62.1478 L223.5237,62.1478 C223.5137,62.1578 223.2127,62.7158 222.9107,63.2488 L222.3067,64.3408 L221.4737,64.3408 L220.8697,63.2668 C220.5587,62.7158 220.2657,62.1578 220.2567,62.1478 L220.2307,62.1478 C220.2307,62.1578 220.2477,62.8848 220.2477,64.3578 L220.2477,65.8758 L218.7577,65.8758 L218.7577,59.6638 L220.3377,59.6638 L221.8987,62.4418 L221.9267,62.4418 L223.4967,59.6638 L225.0147,59.6638 L225.0147,65.8758 L223.5237,65.8758 L223.5237,64.3578 Z" id="Fill-28" fill="#6D6E71" sketch:type="MSShapeGroup" mask="url(#mask-6)"></path>
                <path d="M238.0498,64.039 C237.5888,65.246 236.4438,66 235.0938,66 C233.2388,66 231.8718,64.695 231.8718,62.752 C231.8718,60.861 233.2388,59.538 235.0938,59.538 C236.5228,59.538 237.5708,60.328 237.9878,61.331 L236.5148,61.731 C236.1948,61.234 235.6898,60.941 235.0238,60.941 C234.0118,60.941 233.3728,61.686 233.3728,62.769 C233.3728,63.87 234.0558,64.588 235.0148,64.588 C235.8308,64.588 236.3368,64.163 236.5848,63.648 L238.0498,64.039 Z" id="Fill-29" fill="#6D6E71" sketch:type="MSShapeGroup" mask="url(#mask-6)"></path>
                <path d="M243.7414,64.5885 C244.7704,64.5885 245.5164,63.8795 245.5164,62.7695 C245.5164,61.6515 244.7704,60.9405 243.7414,60.9405 C242.7124,60.9405 241.9664,61.6515 241.9664,62.7695 C241.9664,63.8795 242.7124,64.5885 243.7414,64.5885 M243.7414,59.5385 C245.6404,59.5385 247.0174,60.8705 247.0174,62.7695 C247.0174,64.6695 245.6404,65.9995 243.7414,65.9995 C241.8424,65.9995 240.4654,64.6695 240.4654,62.7695 C240.4654,60.8705 241.8424,59.5385 243.7414,59.5385" id="Fill-30" fill="#6D6E71" sketch:type="MSShapeGroup" mask="url(#mask-6)"></path>
                <path d="M254.4747,64.3578 C254.4747,62.8848 254.4917,62.1578 254.4917,62.1478 L254.4747,62.1478 C254.4657,62.1578 254.1637,62.7158 253.8617,63.2488 L253.2577,64.3408 L252.4247,64.3408 L251.8207,63.2668 C251.5097,62.7158 251.2167,62.1578 251.2077,62.1478 L251.1817,62.1478 C251.1817,62.1578 251.1987,62.8848 251.1987,64.3578 L251.1987,65.8758 L249.7087,65.8758 L249.7087,59.6638 L251.2887,59.6638 L252.8497,62.4418 L252.8777,62.4418 L254.4477,59.6638 L255.9657,59.6638 L255.9657,65.8758 L254.4747,65.8758 L254.4747,64.3578 Z" id="Fill-31" fill="#6D6E71" sketch:type="MSShapeGroup" mask="url(#mask-6)"></path>
                <path d="M261.2652,62.645 C261.8952,62.645 262.1792,62.316 262.1792,61.829 C262.1792,61.34 261.8952,61.021 261.2652,61.021 L260.3962,61.021 L260.3962,62.645 L261.2652,62.645 Z M261.2222,59.663 C262.7472,59.663 263.6712,60.471 263.6712,61.802 C263.6712,63.106 262.7472,63.941 261.2222,63.941 L260.3962,63.941 L260.3962,65.876 L258.9052,65.876 L258.9052,59.663 L261.2222,59.663 Z" id="Fill-32" fill="#6D6E71" sketch:type="MSShapeGroup" mask="url(#mask-6)"></path>
                <path d="M268.8656,62.2543 C268.6706,61.7393 268.5286,61.3493 268.5196,61.3403 L268.4936,61.3403 C268.4846,61.3493 268.3426,61.7313 268.1476,62.2453 L267.7036,63.4883 L269.3096,63.4883 L268.8656,62.2543 Z M267.2146,64.8463 L266.8426,65.8763 L265.2716,65.8763 L267.6676,59.6633 L269.3626,59.6633 L271.7676,65.8763 L270.1706,65.8763 L269.7986,64.8463 L267.2146,64.8463 Z" id="Fill-33" fill="#6D6E71" sketch:type="MSShapeGroup" mask="url(#mask-6)"></path>
                <path d="M275.8273,62.1662 L275.8013,62.1662 C275.8013,62.1752 275.8183,62.9372 275.8183,63.7452 L275.8183,65.8762 L274.3283,65.8762 L274.3283,59.6632 L275.8363,59.6632 L278.4813,63.3022 L278.5073,63.3022 C278.5073,63.2932 278.4993,62.4932 278.4993,61.8202 L278.4993,59.6632 L279.9893,59.6632 L279.9893,65.8762 L278.4733,65.8762 L275.8273,62.1662 Z" id="Fill-34" fill="#6D6E71" sketch:type="MSShapeGroup" mask="url(#mask-6)"></path>
                <path d="M286.3386,65.8759 L284.8476,65.8759 L284.8476,63.4259 L282.5306,59.6629 L284.2526,59.6539 L285.2116,61.3489 C285.4336,61.7399 285.6196,62.0769 285.6276,62.0859 L285.6556,62.0859 C285.6636,62.0769 285.8496,61.7309 286.0716,61.3489 L287.0666,59.6629 L288.6556,59.6629 L286.3386,63.4259 L286.3386,65.8759 Z" id="Fill-35" fill="#6D6E71" sketch:type="MSShapeGroup" mask="url(#mask-6)"></path>
            </g>
        </g>
    </g>
</svg>