<?xml version="1.0" encoding="UTF-8" standalone="no"?>
<svg width="114px" height="113px" viewBox="0 0 114 113" version="1.1" xmlns="http://www.w3.org/2000/svg" xmlns:xlink="http://www.w3.org/1999/xlink" xmlns:sketch="http://www.bohemiancoding.com/sketch/ns">
    <!-- Generator: Sketch 3.5.1 (25234) - http://www.bohemiancoding.com/sketch -->
    <title>Group 22</title>
    <desc>Created with Sketch.</desc>
    <defs></defs>
    <g id="Page-1" stroke="none" stroke-width="1" fill="none" fill-rule="evenodd" sketch:type="MSPage">
        <g id="Home-ver-1" sketch:type="MSArtboardGroup" transform="translate(-813.000000, -940.000000)">
            <g id="Group-8" sketch:type="MSLayerGroup" transform="translate(706.000000, 942.000000)">
                <g id="Group-22" transform="translate(109.000000, 0.000000)" sketch:type="MSShapeGroup">
                    <circle id="Oval-2-Copy-6" stroke="#F2F2F2" stroke-width="4" cx="55" cy="54.5045045" r="54.5045045"></circle>
                    <path d="M80.9461814,6.77236755 C93.5900695,14.1707503 91.735415,41.4167177 76.8036945,67.627939 C61.8719741,93.8391603 39.5175266,109.089979 26.8736384,101.691596 C14.2297503,94.2932136 16.0844048,67.0472462 31.0161253,40.836025 C45.9478457,14.6248037 68.3022933,-0.626015214 80.9461814,6.77236755 Z" id="Oval-35-Copy" stroke="#F2F2F2" stroke-width="3"></path>
                    <path d="M31.0161253,41.9261151 C45.9478457,15.7148938 68.3022933,0.464074876 80.9461814,7.86245764 C93.5900695,15.2608404 91.735415,42.5068078 76.8036945,68.7180291 C61.8719741,94.9292504 39.5175266,110.180069 26.8736384,102.781687 C14.2297503,95.3833037 16.0844048,68.1373363 31.0161253,41.9261151 L31.0161253,41.9261151 Z" id="Oval-35-Copy-2" stroke="#F2F2F2" stroke-width="3" transform="translate(53.909910, 55.322072) scale(-1, 1) translate(-53.909910, -55.322072) "></path>
                    <path d="M54.8272351,28.8201963 C24.6617914,28.6458349 0.276971059,40.3799449 0.362214424,55.0290646 C0.447457788,69.6781843 24.970485,81.69499 55.1359287,81.8693515 C85.3013724,82.0437129 109.686193,70.3096029 109.600949,55.6604832 C109.515706,41.0113635 84.9926789,28.9945577 54.8272351,28.8201963 L54.8272351,28.8201963 L54.8272351,28.8201963 Z" id="Oval-35-Copy-3" stroke="#F2F2F2" stroke-width="3"></path>
                    <path d="M26.1126126,54.4911977 L31.8124236,67.2784827 L39.4683453,78.9862885 L51.919218,80.3111099 L66.5300447,79.9741827 L75.0362604,68.2200521 L81.7971609,54.28308 L76.1300764,42.138795 L68.1029042,30.7993032 L53.6097093,29.4324324 L38.9275584,31.1777476 L32.3023869,41.1035288 L26.1126126,54.4911977 Z M53.9099099,74.1261261 C64.4456122,74.1261261 72.9864865,65.5852519 72.9864865,55.0495495 C72.9864865,44.5138472 64.4456122,35.972973 53.9099099,35.972973 C43.3742076,35.972973 34.8333333,44.5138472 34.8333333,55.0495495 C34.8333333,65.5852519 43.3742076,74.1261261 53.9099099,74.1261261 Z M53.9704705,60.2755697 C57.3151379,60.2755697 60.0265265,57.7635478 60.0265265,54.6648119 C60.0265265,51.5660759 57.3151379,49.0540541 53.9704705,49.0540541 C50.6258031,49.0540541 47.9144144,51.5660759 47.9144144,54.6648119 C47.9144144,57.7635478 50.6258031,60.2755697 53.9704705,60.2755697 Z" id="Path-199-Copy" fill="#F2F2F2"></path>
                </g>
            </g>
        </g>
    </g>
</svg>