<?xml version="1.0" encoding="UTF-8" standalone="no"?>
<svg width="154px" height="155px" viewBox="0 0 154 155" version="1.1" xmlns="http://www.w3.org/2000/svg" xmlns:xlink="http://www.w3.org/1999/xlink" xmlns:sketch="http://www.bohemiancoding.com/sketch/ns">
    <!-- Generator: Sketch 3.5.1 (25234) - http://www.bohemiancoding.com/sketch -->
    <title>Group 18</title>
    <desc>Created with Sketch.</desc>
    <defs></defs>
    <g id="Page-1" stroke="none" stroke-width="1" fill="none" fill-rule="evenodd" sketch:type="MSPage">
        <g id="Home-ver-1" sketch:type="MSArtboardGroup" transform="translate(-1012.000000, -541.000000)">
            <g id="Group-18" sketch:type="MSLayerGroup" transform="translate(1014.000000, 543.846906)">
                <circle id="Oval-2" stroke="#FFFFFF" stroke-width="4" sketch:type="MSShapeGroup" cx="75" cy="75" r="75"></circle>
                <path d="M110.888967,89.0421743 L110.855156,105.689033 C110.850085,108.387152 108.654059,110.77252 105.935652,111.014269 L41.6186294,116.647186 C38.9137474,116.887244 36.7177213,114.88056 36.7261741,112.180749 L36.7549134,95.5389627 L52.2234575,94.1797595 L52.2150047,97.7383699 C52.2099331,99.1567424 53.3561268,100.204884 54.7677371,100.076402 L92.8507854,96.7426352 C94.2640862,96.6175345 95.4204233,95.3749793 95.4254949,93.9549162 L95.4339477,90.3929247 L110.888967,89.0421743 Z M110.795311,60.9562009 L110.893363,85.4522887 L95.4383431,86.8030391 L95.3436723,62.3103324 L110.795311,60.9562009 Z M52.130139,66.0939552 L52.2231194,90.5917335 L36.7647186,91.9441745 L36.6666667,67.4480868 L52.130139,66.0939552 Z M41.7119478,42.2818645 L106.025589,36.6844493 C108.738924,36.4562249 110.926498,38.4510753 110.926498,41.1559574 L110.875781,57.3091747 L95.4207614,58.656544 L95.4292142,55.5848124 C95.4292142,54.1715115 94.2847109,53.1233697 92.868029,53.2518516 L54.7883618,56.5602604 C53.3767515,56.6836707 52.2153428,57.9312975 52.2153428,59.3395267 L52.2102712,62.4129489 L36.7467988,63.7552466 L36.7890626,47.607101 C36.7941342,44.9005284 39.0036847,42.5202322 41.7119478,42.2818645 Z" id="Fill-1" fill="#FFFFFF" sketch:type="MSShapeGroup"></path>
            </g>
        </g>
    </g>
</svg>