<?xml version="1.0" encoding="UTF-8" standalone="no"?>
<svg width="65px" height="60px" viewBox="0 0 65 60" version="1.1" xmlns="http://www.w3.org/2000/svg" xmlns:xlink="http://www.w3.org/1999/xlink" xmlns:sketch="http://www.bohemiancoding.com/sketch/ns">
    <!-- Generator: Sketch 3.4.4 (17249) - http://www.bohemiancoding.com/sketch -->
    <title>search</title>
    <desc>Created with Sketch.</desc>
    <defs></defs>
    <g id="Page-1" stroke="none" stroke-width="1" fill="none" fill-rule="evenodd" sketch:type="MSPage">
        <g id="search" sketch:type="MSLayerGroup">
            <rect id="Rectangle-2" fill="#3F505B" sketch:type="MSShapeGroup" x="0" y="0" width="65" height="60"></rect>
            <g id="Group" transform="translate(18.000000, 15.000000)" sketch:type="MSShapeGroup" fill="#FFFFFF">
                <path d="M11,0 C4.926,0 0,4.926 0,11 C0,17.074 4.926,22 11,22 C17.074,22 22,17.074 22,11 C22,4.926 17.074,0 11,0 L11,0 Z M11,20 C6.038,20 2,15.962 2,11 C2,6.038 6.038,2 11,2 C15.962,2 20,6.038 20,11 C20,15.962 15.962,20 11,20 L11,20 Z" id="Shape"></path>
                <rect id="Rectangle-path" transform="translate(24.999600, 24.999293) rotate(-45.000000) translate(-24.999600, -24.999293) " x="22.8781203" y="20.0498404" width="4.24295931" height="9.89890507"></rect>
                <circle id="Oval" cx="20" cy="20" r="1"></circle>
            </g>
        </g>
    </g>
</svg>