<?xml version="1.0" encoding="UTF-8" standalone="no"?>
<svg width="154px" height="154px" viewBox="0 0 154 154" version="1.1" xmlns="http://www.w3.org/2000/svg" xmlns:xlink="http://www.w3.org/1999/xlink" xmlns:sketch="http://www.bohemiancoding.com/sketch/ns">
    <!-- Generator: Sketch 3.5.1 (25234) - http://www.bohemiancoding.com/sketch -->
    <title>Group 15</title>
    <desc>Created with Sketch.</desc>
    <defs></defs>
    <g id="Page-1" stroke="none" stroke-width="1" fill="none" fill-rule="evenodd" sketch:type="MSPage">
        <g id="Home-ver-1" sketch:type="MSArtboardGroup" transform="translate(-643.000000, -542.000000)">
            <g id="Group-15" sketch:type="MSLayerGroup" transform="translate(645.000000, 544.000000)">
                <path d="M124.75,71.4166667 L117.913333,71.4166667 C116.29,50.1533333 99.3466667,33.21 78.0833333,31.5866667 L78.0833333,24.75 L71.4166667,24.75 L71.4166667,31.5866667 C50.1533333,33.21 33.21,50.1533333 31.5866667,71.4166667 L24.75,71.4166667 L24.75,78.0833333 L31.5866667,78.0833333 C33.21,99.3466667 50.1533333,116.29 71.4166667,117.913333 L71.4166667,124.75 L78.0833333,124.75 L78.0833333,117.913333 C99.3466667,116.29 116.29,99.3466667 117.913333,78.0833333 L124.75,78.0833333 L124.75,71.4166667 L124.75,71.4166667 Z M111.246667,71.4166667 L101.186667,71.4166667 C99.68,59.3633333 90.14,49.82 78.0833333,48.3133333 L78.0833333,38.2533333 C95.6433333,39.8433333 109.656667,53.8566667 111.246667,71.4166667 L111.246667,71.4166667 Z M97.8166667,78.0833333 C96.35,88.28 88.28,96.3466667 78.0833333,97.8166667 L78.0833333,84.75 L71.4166667,84.75 L71.4166667,97.8166667 C61.22,96.35 53.1533333,88.28 51.6833333,78.0833333 L64.75,78.0833333 L64.75,71.4166667 L51.6833333,71.4166667 C53.15,61.22 61.22,53.1533333 71.4166667,51.6833333 L71.4166667,64.75 L78.0833333,64.75 L78.0833333,51.6833333 C88.28,53.15 96.3466667,61.22 97.8166667,71.4166667 L84.75,71.4166667 L84.75,78.0833333 L97.8166667,78.0833333 L97.8166667,78.0833333 Z M71.4166667,38.2533333 L71.4166667,48.3133333 C59.36,49.82 49.82,59.3633333 48.3133333,71.4166667 L38.2533333,71.4166667 C39.8433333,53.8566667 53.8566667,39.8433333 71.4166667,38.2533333 L71.4166667,38.2533333 Z M38.2533333,78.0833333 L48.3133333,78.0833333 C49.82,90.1366667 59.36,99.68 71.4166667,101.186667 L71.4166667,111.246667 C53.8566667,109.656667 39.8433333,95.6433333 38.2533333,78.0833333 L38.2533333,78.0833333 Z M78.0833333,111.246667 L78.0833333,101.186667 C90.14,99.68 99.68,90.1366667 101.186667,78.0833333 L111.246667,78.0833333 C109.656667,95.6433333 95.6433333,109.656667 78.0833333,111.246667 L78.0833333,111.246667 Z" id="Shape" fill="#FFFFFF" sketch:type="MSShapeGroup"></path>
                <circle id="Oval-2" stroke="#FFFFFF" stroke-width="4" sketch:type="MSShapeGroup" cx="75" cy="75" r="75"></circle>
            </g>
        </g>
    </g>
</svg>