<?xml version="1.0" encoding="utf-8"?>
<!-- Generator: Adobe Illustrator 19.1.0, SVG Export Plug-In . SVG Version: 6.00 Build 0)  -->
<!DOCTYPE svg PUBLIC "-//W3C//DTD SVG 1.1//EN" "http://www.w3.org/Graphics/SVG/1.1/DTD/svg11.dtd">
<svg version="1.1" id="Layer_1" xmlns="http://www.w3.org/2000/svg" xmlns:xlink="http://www.w3.org/1999/xlink" x="0px" y="0px"
	 width="102.6px" height="24px" viewBox="0 0 102.6 24" style="enable-background:new 0 0 102.6 24;" xml:space="preserve">
<style type="text/css">
	.st0{fill:#00B29F;}
	.st1{fill:#94A3AB;}
	.st2{fill:#5AAAFA;}
	.st3{fill:#FFFFFF;}
</style>
<g>
	<g>
		<path class="st0" d="M20.7,11.5L24,5.8L20.7,0h-6.6l-3.3,5.8l0,0c0.9-0.4,1.9-0.7,3-0.7C17.4,5.1,20.4,7.9,20.7,11.5z"/>
	</g>
	<g>
		<path class="st0" d="M19.5,10.4c-0.7-2.5-3-4.3-5.7-4.3c-0.5,0-0.9,0.1-1.4,0.2L19.5,10.4z"/>
	</g>
	<g>
		<polygon class="st0" points="19.5,11.5 11.4,6.8 14.1,11.5 		"/>
	</g>
	<g>
		<path class="st1" d="M6.9,12.1C6.9,12,6.9,12,6.9,12.1c0-2.4,1.2-4.5,3.1-5.8l0,0H3.3L0,12l0,0l3.3,5.7h6.6
			C8.1,16.5,6.9,14.4,6.9,12.1z"/>
	</g>
	<g>
		<path class="st1" d="M7.9,12C7.9,12,7.9,12,7.9,12c0,1.6,0.6,3.1,1.7,4.1v-4.1V7.9C8.5,9,7.9,10.4,7.9,12z"/>
	</g>
	<g>
		<polygon class="st1" points="10.5,7.3 10.5,12.1 10.5,16.7 13.2,12.1 13.2,12 		"/>
	</g>
	<g>
		<polygon class="st2" points="11.4,17.2 19.5,12.5 14.1,12.5 		"/>
	</g>
	<g>
		<path class="st2" d="M13.8,18.9c-1.1,0-2.1-0.3-3-0.7l0,0l3.3,5.8h6.6l3.3-5.8l-3.3-5.7C20.4,16.1,17.4,18.9,13.8,18.9z"/>
	</g>
	<g>
		<path class="st2" d="M19.5,13.7l-7.1,4.1c0.4,0.1,0.9,0.2,1.4,0.2C16.5,17.9,18.8,16.1,19.5,13.7z"/>
	</g>
</g>
<g>
	<g>
		<g>
			<path class="st3" d="M30,7H31v9.6H30V7z"/>
			<path class="st3" d="M32.1,7h4.1c1.6,0,3.1,0.6,3.1,2.3c0,1-0.7,1.9-1.7,2.1v0c1.2,0.2,2,1.1,2,2.3c0,0.9-0.3,2.7-3.4,2.7h-4.1V7
				z M33,11.2h3.1c1.4,0,2.2-0.7,2.2-1.6c0-1.2-0.7-1.8-2.2-1.8H33V11.2z M33,15.8h3.1c1.4,0,2.5-0.4,2.5-2c0-1.2-0.9-1.9-2.5-1.9
				H33V15.8z"/>
			<path class="st3" d="M40.5,7h1.3l3.3,8.4L48.4,7h1.3v9.6h-0.9V8.3h0l-3.3,8.3h-0.9l-3.3-8.3h0v8.3h-0.9V7z"/>
		</g>
		<path class="st3" d="M53.8,7h4.5c1.8,0,3.1,0.6,3.1,2.4c0,1-0.5,1.6-1.3,2c1.2,0.3,1.8,1.2,1.8,2.4c0,1.9-1.7,2.8-3.4,2.8h-4.6V7z
			 M55.9,10.9H58c0.8,0,1.3-0.3,1.3-1.1c0-0.9-0.7-1.1-1.4-1.1h-2V10.9z M55.9,15h2.3c0.8,0,1.6-0.3,1.6-1.3c0-1-0.6-1.4-1.5-1.4
			h-2.3V15z"/>
		<path class="st3" d="M62.7,7h1.9v9.6h-1.9V7z"/>
		<path class="st3" d="M72.2,16.6h-1.8v-1h0c-0.5,0.8-1.3,1.2-2.1,1.2c-2,0-2.5-1.1-2.5-2.9V9.7h1.9v3.9c0,1.1,0.3,1.7,1.2,1.7
			c1,0,1.5-0.6,1.5-2V9.7h1.9V16.6z"/>
		<path class="st3" d="M75,13.6c0.1,1.2,0.6,1.8,1.7,1.8c0.8,0,1.4-0.5,1.5-0.9h1.7c-0.5,1.7-1.7,2.3-3.2,2.3
			c-2.2,0-3.5-1.5-3.5-3.6c0-2.1,1.4-3.7,3.5-3.7c2.4,0,3.5,2,3.4,4.1H75z M78.1,12.4c-0.2-1-0.6-1.5-1.5-1.5
			c-1.2,0-1.5,0.9-1.6,1.5H78.1z"/>
		<path class="st3" d="M81,9.7h1.8v0.9h0c0.5-0.7,1.2-1.1,2.1-1.1c0.9,0,1.7,0.3,2,1.2c0.4-0.6,1.1-1.2,2.1-1.2
			c1.5,0,2.5,0.7,2.5,2.5v4.6h-1.9v-3.9c0-0.9-0.1-1.7-1.2-1.7c-1.1,0-1.3,0.9-1.3,1.8v3.9h-1.9v-3.9c0-0.8,0.1-1.7-1.2-1.7
			c-0.4,0-1.3,0.2-1.3,1.6v4H81V9.7z"/>
		<path class="st3" d="M94.7,8.6h-1.9V7h1.9V8.6z M92.8,9.7h1.9v6.9h-1.9V9.7z"/>
		<path class="st3" d="M97.9,13l-2.3-3.3h2.2l1.2,1.8l1.2-1.8h2.1l-2.3,3.2l2.6,3.7h-2.2L99,14.4l-1.4,2.2h-2.1L97.9,13z"/>
	</g>
</g>
</svg>
